<svg aria-hidden="true" style="position: absolute; width: 0; height: 0; overflow: hidden;" version="1.1" xmlns="http://www.w3.org/2000/svg" xmlns:xlink="http://www.w3.org/1999/xlink">
<defs>
<symbol id="icon-bg-hero-desktop" viewBox="0 0 64 32">
<title>bg-hero-desktop</title>
<path d="M43.543 24.473l1.008 1.008c0.052 0.052 0.052 0.137 0 0.189l-1.008 1.008c-0.052 0.052-0.137 0.052-0.189 0l-1.008-1.008c-0.052-0.052-0.052-0.137 0-0.189l1.008-1.008c0.052-0.052 0.137-0.052 0.189 0z"></path>
<path d="M23.030 15.074l0.473 0.473c0.017 0.017 0.017 0.046 0 0.063l-0.473 0.473c-0.017 0.017-0.046 0.017-0.063 0l-0.473-0.473c-0.017-0.017-0.017-0.046 0-0.063l0.473-0.473c0.017-0.017 0.046-0.017 0.063 0z"></path>
<path d="M0 18.184c1.736-4.128 4.272-5.614 7.607-4.456 5.003 1.736 6.781 4.083 9.475 0 0.698-1.059 0.44-3.321-1.305-3.411s-0.412-2.064 2.591-2.452c3.004-0.387-0.806-3.123-3.093-3.917-2.374-0.825 0.676-2.999 0.911-3.829 0.382-1.347-5.013-1.347-16.187 0v18.065z"></path>
<path d="M64.178 32c-3.9-0.046-6.775-0.944-8.626-2.695-2.777-2.627-2.754-8.307-8.675-7.996s-12.247-0.96-10.001-4.538c2.246-3.578 7.493-3.135 8.747-8.967s-9.013 1.211-10.709-2.667c-0.662-1.514 0.91-1.719-1.528-3.422-0.809-0.566-1.2-1.385-1.039-1.704 0.078-0.154 0.353 0.070 0.64 0 0.912-0.223 2.842 0 4.797 0h26.393v31.99z"></path>
<path d="M23.193 26.395c0.388-0.081 0.508 0.347 1.216 0.347s1.336-0.404 2.211-0.048c0.875 0.356 1.583 1.436 0.687 1.227-0.53-0.123-1.185-0.498-2.087 0.216s-1.442-0.649-2.117-0.44c-0.676 0.209-0.3-1.221 0.091-1.302z"></path>
</symbol>
<symbol id="icon-bg-hero-mobile" viewBox="0 0 18 32">
<title>bg-hero-mobile</title>
<path d="M-1.948 15.635c0.704-2.632 2.129-3.633 4.275-3.001 3.219 0.948 3.219 0.913 5.422-0.686 0.661-0.479 0.25-2.747-0.741-2.822s-0.234-1.708 1.471-2.028c1.705-0.32-0.458-2.583-1.756-3.241-1.348-0.683 0.383-2.481 0.517-3.167 0.217-1.115-2.846-1.115-9.189 0v14.945z"></path>
<path d="M18.265 26.058c-1.276-0.030-2.216-0.613-2.822-1.751-0.908-1.706-0.901-5.396-2.837-5.195s-4.006-0.624-3.271-2.948c0.735-2.324 2.451-2.036 2.861-5.825s-2.948 0.787-3.503-1.733c-0.217-0.984 0.298-1.116-0.5-2.223-0.265-0.367-0.393-0.9-0.34-1.107 0.164-3.487 0.277-5.246 0.34-5.276 0.298-0.145 0.702-0.097 1.342-0.097 1.377 0 4.287 0.033 8.73 0.097v26.058z"></path>
<path d="M2.138 30.957l0.464 0.464c0.024 0.024 0.024 0.063 0 0.087l-0.464 0.464c-0.024 0.024-0.063 0.024-0.087 0l-0.464-0.464c-0.024-0.024-0.024-0.063 0-0.087l0.464-0.464c0.024-0.024 0.063-0.024 0.087 0z"></path>
<path d="M11.003 21.311l0.379 0.379c0.019 0.019 0.019 0.050 0 0.069l-0.379 0.379c-0.019 0.019-0.050 0.019-0.069 0l-0.379-0.379c-0.019-0.019-0.019-0.050 0-0.069l0.379-0.379c0.019-0.019 0.050-0.019 0.069 0z"></path>
</symbol>
<symbol id="icon-icon-email" viewBox="0 0 40 32">
<title>icon-email</title>
<path fill="#fff" style="fill: var(--color1, #fff)" d="M36 0h-32c-2.2 0-4 1.8-4 4v24c0 2.2 1.8 4 4 4h32c2.2 0 4-1.8 4-4v-24c0-2.2-1.8-4-4-4zM36 28h-4v-17.6l-12 7.6-12-7.6v17.6h-4v-24h2.4l13.6 8.4 13.6-8.4h2.4v24z"></path>
</symbol>
<symbol id="icon-icon-location" viewBox="0 0 23 32">
<title>icon-location</title>
<path fill="#fff" style="fill: var(--color1, #fff)" d="M11.001 0c-6.13 0-11.001 4.96-11.001 11.2 0 8.32 11.001 20.8 11.001 20.8s10.999-12.48 10.999-20.8c0-6.24-4.871-11.2-11.001-11.2zM11.001 15.2c-2.201 0-3.929-1.76-3.929-4s1.728-4 3.929-4c2.199 0 3.929 1.76 3.929 4s-1.73 4-3.929 4z"></path>
</symbol>
<symbol id="icon-icon-phone" viewBox="0 0 32 32">
<title>icon-phone</title>
<path fill="#fff" style="fill: var(--color1, #fff)" d="M30.222 22.222c-2.133 0-4.267-0.356-6.4-1.067-0.533-0.178-1.244 0-1.778 0.356l-3.911 3.911c-4.978-2.489-9.067-6.756-11.733-11.733l3.911-3.911c0.533-0.533 0.711-1.244 0.356-1.778-0.533-1.956-0.889-4.089-0.889-6.222 0-1.067-0.711-1.778-1.778-1.778h-6.222c-1.067 0-1.778 0.711-1.778 1.778 0 16.711 13.511 30.222 30.222 30.222 1.067 0 1.778-0.711 1.778-1.778v-6.222c0-1.067-0.711-1.778-1.778-1.778zM28.444 16h3.556c0-8.889-7.111-16-16-16v3.556c6.933 0 12.444 5.511 12.444 12.444zM21.333 16h3.556c0-4.978-3.911-8.889-8.889-8.889v3.556c3.022 0 5.333 2.311 5.333 5.333z"></path>
</symbol>
<symbol id="icon-logo" viewBox="0 0 197 32">
<title>logo</title>
<path fill="#ff52c1" style="fill: var(--color57, #ff52c1)" d="M22.947 0.721c-6.338-0.003-12.952 1.424-19.627 3.276-0.848 0.171-1.675 0.725-2.112 1.411-0.402 0.647-0.548 1.296-0.674 1.976-0.648 3.633-0.569 7.201-0.435 11.154 0.030 0.905 0.164 1.977 0.587 2.63 0.441 0.659 1.198 1.077 2.101 1.214 0.746 0.124 1.935 0.276 3.132 0.402l0.341 0.029-0.256 7.137c-0.039 0.568 0.238 1.040 0.583 1.311 0.308 0.235 0.652 0.339 1.005 0.365 0.706 0.053 1.534-0.249 1.945-1.031 1.801-3.466 2.931-4.996 5.183-7.298 5.873 0.144 11.001-0.182 16.806-0.611 2.052-0.053 3.461-1.731 3.833-3.071 1.113-3.472 1.287-7.759 1.405-12.092 0.050-1.717-0.546-3.404-1.6-4.295-1.003-0.813-2.217-1.108-3.33-1.41-3.091-0.7-6.183-1.076-8.887-1.097zM31.39 3.437c1.114 0.303 2.096 0.594 2.716 1.097 1.034 1.099 0.999 1.83 0.985 3.015-0.117 4.203-0.318 8.281-1.267 11.372-0.409 1.153-1.121 1.973-2.466 2.097-5.914 0.437-11.046 0.775-16.99 0.606-0.008-0-0.018-0-0.027-0-0.234 0-0.446 0.095-0.599 0.248v0c-2.498 2.522-3.775 4.275-5.679 7.939-0.044 0.084-0.14 0.135-0.258 0.144-0.080-0.004-0.112-0.066-0.117-0.121l0.258-7.739c0.016-0.418-0.329-0.816-0.744-0.862-1.757-0.167-3.18-0.347-4.59-0.564l0.438 0.056c-0.596-0.091-0.816-0.254-0.979-0.497-0.284-0.677-0.277-1.095-0.3-1.746-0.133-3.918-0.199-7.342 0.403-10.749 0.056-0.504 0.244-1.019 0.445-1.45 0.332-0.519 0.839-0.595 1.349-0.736 6.528-1.803 12.915-3.151 18.928-3.155 2.947 0.107 6.042 0.402 8.496 1.044zM8.844 10.075c-0.899 1.077-0.81 2.54-0.115 3.52 0.363 0.513 0.929 0.926 1.618 1.019 0.895 0.074 1.463-0.289 2.076-0.706 1.11-0.965 1.223-2.649 0.378-3.865-0.43-0.62-1.118-0.991-1.82-1.017-0.962 0.010-1.615 0.439-2.137 1.048zM18.572 9.195c-0.896 0.029-1.62 0.649-2.063 1.319-0.506 0.766-0.802 1.724-0.392 2.663 0.788 1.808 3.509 1.785 4.595-0.052 0.5-0.847 0.372-1.809 0-2.508-0.371-0.697-0.932-1.266-1.748-1.396-0.1-0.017-0.215-0.027-0.332-0.027-0.021 0-0.042 0-0.062 0.001l0.003-0zM26.469 9.365c-0.279-0.007-0.566 0.020-0.835 0.091-1.076 0.287-1.993 1.398-1.854 2.82 0.071 0.716 0.4 1.413 0.993 1.894s1.455 0.695 2.363 0.509c1.044-0.213 1.69-1.054 1.906-1.867s0.162-1.64-0.34-2.311c-0.516-0.682-1.321-1.121-2.229-1.136l-0.002-0zM10.908 10.697c0.201 0.002 0.359 0.066 0.523 0.3 0.365 0.527 0.263 1.325-0.105 1.645-0.367 0.32-0.596 0.348-0.756 0.327s-0.324-0.133-0.47-0.34c-0.279-0.394-0.361-1.031 0.006-1.485 0.195-0.259 0.554-0.421 0.804-0.447zM18.689 10.88c0.031 0.005 0.381 0.208 0.548 0.522s0.199 0.606 0.039 0.875c-0.473 0.801-1.48 0.584-1.633 0.236-0.057-0.133-0.014-0.667 0.263-1.083 0.275-0.418 0.621-0.574 0.783-0.55zM27.357 11.494c0.051 0.068 0.175 0.525 0.079 0.888s-0.254 0.587-0.64 0.665c-0.494 0.102-0.771 0-0.979-0.17-0.208-0.168-0.349-0.453-0.379-0.757-0.074-0.755 0.197-0.93 0.627-1.044 0.5-0.123 1.067 0.092 1.292 0.418z"></path>
<path fill="#00252e" style="fill: var(--color42, #00252e)" d="M47.27 4.099c0.013-0.213 0.091-0.405 0.236-0.575 0.133-0.156 0.329-0.255 0.549-0.255 0.009 0 0.019 0 0.028 0.001l-0.001-0h5.601c0.189 0 0.383 0.079 0.584 0.236 0.184 0.133 0.302 0.347 0.302 0.589 0 0.002 0 0.004-0 0.006v-0 8.938h9.371v-8.938c0-0.226 0.079-0.421 0.235-0.584s0.361-0.246 0.613-0.246h5.525c0.251 0 0.471 0.063 0.66 0.189s0.283 0.327 0.283 0.604v26.38c0 0.276-0.082 0.484-0.246 0.622-0.162 0.139-0.377 0.208-0.64 0.208h-5.582c-0.251 0-0.455-0.069-0.613-0.208s-0.236-0.345-0.236-0.622v-10.71h-9.371v10.71c0 0.264-0.085 0.468-0.254 0.613s-0.4 0.217-0.689 0.217h-5.543c-0.528 0-0.798-0.245-0.811-0.735v-26.436zM98.859 30.951c-0.163 0.138-0.336 0.226-0.519 0.263-0.155 0.035-0.333 0.056-0.517 0.057h-2.848c-0.226 0-0.422-0.041-0.585-0.123s-0.302-0.192-0.415-0.33c-0.111-0.136-0.205-0.291-0.277-0.459l-0.005-0.013c-0.067-0.149-0.131-0.331-0.182-0.518l-0.007-0.028-0.584-2.414c-0.189 0.39-0.462 0.833-0.82 1.329-0.395 0.532-0.845 0.992-1.351 1.383l-0.016 0.012c-0.553 0.435-1.214 0.799-1.98 1.095s-1.647 0.443-2.64 0.443c-1.433 0-2.734-0.276-3.903-0.83-1.178-0.558-2.173-1.321-2.979-2.252l-0.010-0.011c-0.823-0.955-1.461-2.071-1.913-3.348-0.453-1.275-0.679-2.636-0.679-4.081v-12.351c0-0.478 0.104-0.839 0.312-1.084s0.537-0.368 0.99-0.368h4.355c0.542 0 0.912 0.090 1.113 0.273s0.302 0.537 0.302 1.065v12.275c0 0.542 0.123 1.054 0.368 1.538s0.569 0.911 0.972 1.282c0.402 0.371 0.857 0.664 1.367 0.877s1.027 0.32 1.556 0.32c0.452 0 0.921-0.107 1.405-0.32 0.513-0.23 0.954-0.518 1.344-0.863l-0.005 0.005c0.409-0.358 0.745-0.779 1.009-1.264s0.395-0.996 0.395-1.536v-12.257c0-0.213 0.041-0.427 0.123-0.641s0.204-0.377 0.368-0.491c0.163-0.1 0.318-0.169 0.462-0.207s0.312-0.057 0.5-0.057h4.262c0.54 0 0.93 0.133 1.168 0.396s0.359 0.616 0.359 1.056v21.1c0 0.238-0.053 0.459-0.16 0.66s-0.254 0.359-0.443 0.471l0.112-0.056zM120.752 28.348c-0.34 0.34-0.714 0.704-1.122 1.094s-0.858 0.755-1.348 1.094c-0.457 0.32-0.978 0.602-1.532 0.821l-0.052 0.018c-0.53 0.209-1.144 0.33-1.787 0.33-0.015 0-0.030-0-0.045-0l0.002 0c-1.709 0-3.284-0.32-4.724-0.962-1.453-0.647-2.688-1.534-3.709-2.624l-0.006-0.006c-1.037-1.113-1.848-2.423-2.432-3.932s-0.877-3.129-0.877-4.865c0-1.748 0.292-3.372 0.877-4.874s1.395-2.809 2.432-3.922c1.026-1.095 2.261-1.98 3.643-2.592l0.071-0.028c1.44-0.635 3.015-0.953 4.724-0.953 0.692 0 1.323 0.101 1.895 0.302 0.597 0.21 1.114 0.471 1.59 0.789l-0.025-0.016c0.472 0.314 0.905 0.67 1.301 1.065s0.77 0.783 1.122 1.16v-8.618c0-0.402 0.123-0.741 0.368-1.017s0.613-0.415 1.104-0.415h4.242c0.164 0 0.336 0.034 0.519 0.103s0.349 0.167 0.501 0.293c0.15 0.126 0.272 0.276 0.367 0.452s0.142 0.371 0.142 0.584v28.19c0 0.968-0.509 1.452-1.528 1.452h-3.696c-0.251 0-0.446-0.033-0.584-0.095-0.14-0.064-0.257-0.157-0.348-0.271l-0.001-0.002c-0.1-0.13-0.185-0.279-0.25-0.439l-0.005-0.013c-0.125-0.302-0.219-0.51-0.319-0.715l0.037 0.084-0.547-1.471zM109.909 19.316c-0 0.016-0 0.035-0 0.055 0 0.815 0.142 1.597 0.402 2.323l-0.015-0.048c0.258 0.722 0.625 1.348 1.104 1.876 0.475 0.522 1.048 0.944 1.692 1.24l0.033 0.013c0.673 0.308 1.418 0.462 2.235 0.462 0.804 0 1.561-0.144 2.272-0.433 0.72-0.293 1.336-0.698 1.859-1.2l-0.002 0.002c0.521-0.504 0.949-1.101 1.258-1.764l0.015-0.037c0.32-0.692 0.5-1.433 0.537-2.225v-0.264c0-0.006 0-0.014 0-0.021 0-0.822-0.166-1.605-0.468-2.318l0.015 0.039c-0.309-0.745-0.733-1.384-1.255-1.925l0.002 0.002c-0.525-0.542-1.151-0.984-1.848-1.295l-0.038-0.015c-0.676-0.304-1.466-0.481-2.297-0.481-0.018 0-0.035 0-0.053 0l0.003-0c-0.817 0-1.562 0.16-2.235 0.481s-1.247 0.757-1.725 1.31c-0.468 0.543-0.843 1.182-1.091 1.882l-0.013 0.042c-0.244 0.675-0.386 1.454-0.386 2.266 0 0.012 0 0.024 0 0.035v-0.002zM149.885 28.348c-0.34 0.34-0.714 0.704-1.122 1.094s-0.858 0.755-1.348 1.094c-0.457 0.32-0.978 0.602-1.532 0.821l-0.052 0.018c-0.53 0.209-1.144 0.33-1.787 0.33-0.015 0-0.030-0-0.045-0l0.002 0c-1.709 0-3.284-0.32-4.723-0.962-1.453-0.647-2.688-1.534-3.71-2.624l-0.006-0.006c-1.036-1.113-1.848-2.423-2.432-3.932s-0.877-3.129-0.877-4.865c0-1.748 0.293-3.372 0.877-4.874s1.395-2.809 2.432-3.922c1.026-1.095 2.261-1.98 3.644-2.592l0.071-0.028c1.439-0.635 3.014-0.953 4.723-0.953 0.692 0 1.323 0.101 1.895 0.302 0.597 0.21 1.114 0.471 1.59 0.789l-0.025-0.016c0.472 0.314 0.905 0.67 1.301 1.065s0.77 0.783 1.122 1.16v-8.618c0-0.402 0.123-0.741 0.368-1.017 0.246-0.277 0.613-0.415 1.104-0.415h4.242c0.164 0 0.336 0.034 0.519 0.103s0.35 0.167 0.5 0.293c0.15 0.126 0.273 0.276 0.368 0.452s0.141 0.371 0.141 0.584v28.19c0 0.968-0.509 1.452-1.528 1.452h-3.696c-0.251 0-0.446-0.033-0.584-0.095-0.14-0.064-0.257-0.157-0.347-0.271l-0.001-0.002c-0.1-0.13-0.185-0.279-0.25-0.439l-0.005-0.013c-0.125-0.302-0.22-0.51-0.32-0.715l0.037 0.083-0.547-1.471zM139.042 19.316c-0 0.016-0 0.035-0 0.055 0 0.815 0.142 1.597 0.402 2.323l-0.015-0.048c0.258 0.722 0.626 1.348 1.104 1.876 0.475 0.522 1.049 0.944 1.693 1.24l0.033 0.013c0.673 0.308 1.417 0.462 2.234 0.462 0.804 0 1.561-0.144 2.272-0.433 0.72-0.293 1.337-0.698 1.86-1.2l-0.002 0.002c0.52-0.504 0.948-1.101 1.256-1.764l0.015-0.037c0.321-0.692 0.5-1.433 0.538-2.225v-0.264c0-0.006 0-0.014 0-0.021 0-0.822-0.167-1.605-0.468-2.318l0.015 0.039c-0.309-0.745-0.733-1.384-1.255-1.925l0.002 0.002c-0.525-0.542-1.151-0.984-1.848-1.295l-0.038-0.015c-0.676-0.304-1.466-0.481-2.297-0.481-0.018 0-0.035 0-0.053 0l0.003-0c-0.817 0-1.562 0.16-2.234 0.481s-1.248 0.757-1.726 1.31c-0.468 0.543-0.843 1.182-1.091 1.882l-0.013 0.042c-0.244 0.675-0.386 1.454-0.386 2.266 0 0.012 0 0.024 0 0.035v-0.002zM162.142 1.648c0-0.402 0.1-0.741 0.301-1.017s0.547-0.415 1.037-0.415h4.619c0.126 0 0.258 0.034 0.396 0.103 0.15 0.078 0.278 0.176 0.386 0.292l0.001 0.001c0.12 0.126 0.22 0.276 0.302 0.452s0.123 0.371 0.123 0.584v28.172c0 0.478-0.135 0.839-0.406 1.084s-0.619 0.368-1.046 0.368h-4.375c-0.49 0-0.835-0.123-1.037-0.368s-0.301-0.607-0.301-1.084v-28.172zM193.895 28.404c-1.057 0.979-2.293 1.782-3.651 2.354l-0.083 0.031c-1.282 0.543-2.772 0.858-4.336 0.858-0.020 0-0.041-0-0.061-0h0.003c-1.723 0-3.35-0.314-4.884-0.944-1.564-0.642-2.903-1.524-4.040-2.615l0.004 0.004c-1.136-1.097-2.063-2.401-2.721-3.853l-0.032-0.079c-0.679-1.508-1.018-3.148-1.018-4.921 0-1.106 0.135-2.178 0.405-3.215 0.29-1.107 0.683-2.076 1.183-2.978l-0.033 0.065c0.526-0.95 1.127-1.77 1.816-2.505l-0.006 0.007c0.694-0.743 1.477-1.389 2.337-1.924l0.049-0.028c0.824-0.513 1.775-0.943 2.783-1.242l0.083-0.021c0.959-0.287 2.061-0.452 3.201-0.452 0.021 0 0.042 0 0.064 0h-0.003c1.044 0 2.055 0.139 3.036 0.415s1.902 0.666 2.763 1.168c0.862 0.503 1.649 1.107 2.366 1.811 0.692 0.678 1.303 1.435 1.818 2.258l0.030 0.051c0.483 0.77 0.891 1.658 1.177 2.598l0.021 0.079c0.282 0.949 0.424 1.927 0.424 2.932 0 0.654-0.010 1.188-0.029 1.603s-0.117 0.745-0.292 0.99c-0.176 0.246-0.468 0.415-0.877 0.509-0.409 0.095-1.009 0.142-1.8 0.142h-13.576c0.126 0.804 0.38 1.477 0.763 2.018 0.359 0.515 0.801 0.944 1.311 1.279l0.018 0.011c0.503 0.321 1.037 0.55 1.603 0.689 0.48 0.127 1.031 0.202 1.599 0.207l0.003 0c0.453 0 0.917-0.048 1.395-0.141 0.541-0.107 1.006-0.238 1.456-0.399l-0.070 0.022c0.476-0.167 0.88-0.351 1.264-0.568l-0.039 0.020c0.371-0.207 0.67-0.424 0.896-0.65 0.201-0.164 0.374-0.286 0.519-0.368s0.299-0.122 0.462-0.122c0.164 0 0.33 0.057 0.5 0.17 0.214 0.151 0.402 0.312 0.573 0.489l0.001 0.001 1.999 2.263c0.138 0.164 0.226 0.312 0.264 0.443s0.057 0.267 0.057 0.405c0 0.252-0.070 0.468-0.208 0.651-0.141 0.184-0.303 0.343-0.484 0.476l-0.007 0.005zM184.825 12.697c-0.491 0-0.965 0.098-1.424 0.292-0.494 0.214-0.92 0.476-1.302 0.79l0.009-0.007c-0.402 0.327-0.763 0.697-1.084 1.113-0.29 0.367-0.55 0.782-0.765 1.223l-0.018 0.041h9.635c-0.281-0.522-0.565-0.966-0.878-1.388l0.021 0.030c-0.309-0.414-0.656-0.774-1.044-1.085l-0.012-0.009c-0.387-0.307-0.838-0.557-1.326-0.726l-0.032-0.010c-0.509-0.176-1.103-0.264-1.781-0.264z"></path>
</symbol>
<symbol id="icon-twitter" viewBox="0 0 26 28">
<title>twitter</title>
<path d="M25.312 6.375c-0.688 1-1.547 1.891-2.531 2.609 0.016 0.219 0.016 0.438 0.016 0.656 0 6.672-5.078 14.359-14.359 14.359-2.859 0-5.516-0.828-7.75-2.266 0.406 0.047 0.797 0.063 1.219 0.063 2.359 0 4.531-0.797 6.266-2.156-2.219-0.047-4.078-1.5-4.719-3.5 0.313 0.047 0.625 0.078 0.953 0.078 0.453 0 0.906-0.063 1.328-0.172-2.312-0.469-4.047-2.5-4.047-4.953v-0.063c0.672 0.375 1.453 0.609 2.281 0.641-1.359-0.906-2.25-2.453-2.25-4.203 0-0.938 0.25-1.797 0.688-2.547 2.484 3.062 6.219 5.063 10.406 5.281-0.078-0.375-0.125-0.766-0.125-1.156 0-2.781 2.25-5.047 5.047-5.047 1.453 0 2.766 0.609 3.687 1.594 1.141-0.219 2.234-0.641 3.203-1.219-0.375 1.172-1.172 2.156-2.219 2.781 1.016-0.109 2-0.391 2.906-0.781z"></path>
</symbol>
<symbol id="icon-facebook" viewBox="0 0 16 28">
<title>facebook</title>
<path d="M14.984 0.187v4.125h-2.453c-1.922 0-2.281 0.922-2.281 2.25v2.953h4.578l-0.609 4.625h-3.969v11.859h-4.781v-11.859h-3.984v-4.625h3.984v-3.406c0-3.953 2.422-6.109 5.953-6.109 1.687 0 3.141 0.125 3.563 0.187z"></path>
</symbol>
<symbol id="icon-instagram" viewBox="0 0 24 28">
<title>instagram</title>
<path d="M16 14c0-2.203-1.797-4-4-4s-4 1.797-4 4 1.797 4 4 4 4-1.797 4-4zM18.156 14c0 3.406-2.75 6.156-6.156 6.156s-6.156-2.75-6.156-6.156 2.75-6.156 6.156-6.156 6.156 2.75 6.156 6.156zM19.844 7.594c0 0.797-0.641 1.437-1.437 1.437s-1.437-0.641-1.437-1.437 0.641-1.437 1.437-1.437 1.437 0.641 1.437 1.437zM12 4.156c-1.75 0-5.5-0.141-7.078 0.484-0.547 0.219-0.953 0.484-1.375 0.906s-0.688 0.828-0.906 1.375c-0.625 1.578-0.484 5.328-0.484 7.078s-0.141 5.5 0.484 7.078c0.219 0.547 0.484 0.953 0.906 1.375s0.828 0.688 1.375 0.906c1.578 0.625 5.328 0.484 7.078 0.484s5.5 0.141 7.078-0.484c0.547-0.219 0.953-0.484 1.375-0.906s0.688-0.828 0.906-1.375c0.625-1.578 0.484-5.328 0.484-7.078s0.141-5.5-0.484-7.078c-0.219-0.547-0.484-0.953-0.906-1.375s-0.828-0.688-1.375-0.906c-1.578-0.625-5.328-0.484-7.078-0.484zM24 14c0 1.656 0.016 3.297-0.078 4.953-0.094 1.922-0.531 3.625-1.937 5.031s-3.109 1.844-5.031 1.937c-1.656 0.094-3.297 0.078-4.953 0.078s-3.297 0.016-4.953-0.078c-1.922-0.094-3.625-0.531-5.031-1.937s-1.844-3.109-1.937-5.031c-0.094-1.656-0.078-3.297-0.078-4.953s-0.016-3.297 0.078-4.953c0.094-1.922 0.531-3.625 1.937-5.031s3.109-1.844 5.031-1.937c1.656-0.094 3.297-0.078 4.953-0.078s3.297-0.016 4.953 0.078c1.922 0.094 3.625 0.531 5.031 1.937s1.844 3.109 1.937 5.031c0.094 1.656 0.078 3.297 0.078 4.953z"></path>
</symbol>
</defs>
</svg>
