<svg aria-hidden="true" style="position: absolute; width: 0; height: 0; overflow: hidden;" version="1.1" xmlns="http://www.w3.org/2000/svg" xmlns:xlink="http://www.w3.org/1999/xlink">
<defs>
<symbol id="icon-arrow" viewBox="0 0 32 32">
<title>arrow</title>
<path fill="#000" style="fill: var(--color1, #000)" d="M28 16c0 6.627-5.373 12-12 12s-12-5.373-12-12c0-6.627 5.373-12 12-12s12 5.373 12 12z"></path>
<path fill="#3da08f" style="fill: var(--color2, #3da08f)" d="M28 16c0 6.627-5.373 12-12 12s-12-5.373-12-12c0-6.627 5.373-12 12-12s12 5.373 12 12z"></path>
<path fill="#fff" style="fill: var(--color3, #fff)" d="M17.164 12l-0.726 0.7 2.904 2.8h-8.676v1h8.676l-2.902 2.8 0.726 0.7 4.148-4z"></path>
</symbol>
<symbol id="icon-email" viewBox="0 0 40 32">
<title>email</title>
<path fill="#fff" style="fill: var(--color3, #fff)" d="M36 0h-32c-2.2 0-4 1.8-4 4v24c0 2.2 1.8 4 4 4h32c2.2 0 4-1.8 4-4v-24c0-2.2-1.8-4-4-4zM36 28h-4v-17.6l-12 7.6-12-7.6v17.6h-4v-24h2.4l13.6 8.4 13.6-8.4h2.4v24z"></path>
</symbol>
<symbol id="icon-phone" viewBox="0 0 32 32">
<title>phone</title>
<path fill="#fff" style="fill: var(--color3, #fff)" d="M30.222 22.222c-2.133 0-4.267-0.356-6.4-1.067-0.533-0.178-1.244 0-1.778 0.356l-3.911 3.911c-4.978-2.489-9.067-6.756-11.733-11.733l3.911-3.911c0.533-0.533 0.711-1.244 0.356-1.778-0.533-1.956-0.889-4.089-0.889-6.222 0-1.067-0.711-1.778-1.778-1.778h-6.222c-1.067 0-1.778 0.711-1.778 1.778 0 16.711 13.511 30.222 30.222 30.222 1.067 0 1.778-0.711 1.778-1.778v-6.222c0-1.067-0.711-1.778-1.778-1.778zM28.444 16h3.556c0-8.889-7.111-16-16-16v3.556c6.933 0 12.444 5.511 12.444 12.444zM21.333 16h3.556c0-4.978-3.911-8.889-8.889-8.889v3.556c3.022 0 5.333 2.311 5.333 5.333z"></path>
</symbol>
<symbol id="icon-quotes" viewBox="0 0 35 32">
<title>quotes</title>
<text transform="translate(-34 -25)" fill="#07043B" fill-rule="evenodd" font-family="Helvetica" font-size="45"><tspan x="33" y="56">“</tspan></text></symbol>
<symbol id="icon-logo" viewBox="0 0 108 32">
<title>logo</title>
<path fill="#bdbafa" style="fill: var(--color4, #bdbafa)" d="M0 9.228v0.080l18.253 8.575 18.318-8.603v-0.022l-18.318-8.605-18.253 8.575zM6.581 9.268l11.672-5.484 11.675 5.484-11.675 5.483-11.673-5.483zM18.253 21.213l-18.253-8.446v3.124l18.253 8.466 18.318-8.496v-3.124l-18.318 8.475zM18.253 27.55l-18.253-8.448v3.124l18.253 8.468 18.318-8.496v-3.124l-18.318 8.477z"></path>
<path fill="#000" style="fill: var(--color1, #000)" d="M104.202 15.773c0-0.013 0-0.027 0-0.042 0-1.391-0.537-2.656-1.414-3.601l0.003 0.003c-0.423-0.453-0.931-0.821-1.499-1.080l-0.030-0.012c-0.539-0.248-1.17-0.393-1.835-0.393-0.009 0-0.019 0-0.028 0h0.001c-0.66 0-1.281 0.131-1.863 0.393-0.597 0.271-1.105 0.64-1.526 1.090l-0.002 0.003c-0.874 0.941-1.411 2.206-1.411 3.597 0 0.015 0 0.030 0 0.045v-0.002c-0 0.013-0 0.028-0 0.042 0 1.391 0.537 2.656 1.414 3.6l-0.003-0.003c0.423 0.453 0.931 0.821 1.499 1.080l0.030 0.012c0.54 0.248 1.171 0.393 1.836 0.393 0.009 0 0.018-0 0.027-0h-0.001c0.66 0 1.28-0.131 1.863-0.393 0.597-0.271 1.104-0.639 1.525-1.089l0.002-0.003c0.874-0.941 1.411-2.206 1.411-3.597 0-0.015-0-0.031-0-0.046l0 0.002zM108.392 15.773c0 1.262-0.233 2.431-0.699 3.509-0.471 1.090-1.119 2.019-1.918 2.793l-0.002 0.002c-0.814 0.787-1.77 1.408-2.866 1.864s-2.265 0.684-3.506 0.684c-1.241 0-2.405-0.228-3.491-0.684-1.106-0.465-2.052-1.099-2.853-1.88l0.002 0.002c-0.799-0.782-1.446-1.715-1.898-2.753l-0.022-0.056c-0.466-1.078-0.699-2.237-0.699-3.48 0-1.223 0.238-2.373 0.713-3.451 0.485-1.097 1.137-2.034 1.934-2.824l0.001-0.001c0.798-0.787 1.744-1.426 2.793-1.871l0.059-0.022c1.008-0.433 2.181-0.685 3.413-0.685 0.017 0 0.034 0 0.052 0h-0.003c1.241 0 2.41 0.229 3.506 0.684s2.051 1.078 2.866 1.864 1.455 1.723 1.92 2.809c0.466 1.087 0.699 2.252 0.699 3.495zM88.985 24.101c-0.319 0.151-0.693 0.282-1.082 0.371l-0.038 0.007c-0.417 0.097-0.849 0.145-1.294 0.145-0.007 0-0.015 0-0.023 0-0.629 0-1.237-0.090-1.812-0.259l0.045 0.011c-0.579-0.165-1.081-0.44-1.504-0.805l0.005 0.004c-0.426-0.369-0.766-0.849-1.019-1.441-0.251-0.592-0.377-1.306-0.377-2.14v-19.977h4.277v19.248c0 0.699 0.14 1.179 0.422 1.441s0.616 0.393 1.004 0.393c0.485 0 0.95-0.146 1.396-0.437v3.436zM79.995 7.327l-7.565 20.006c-0.562 1.495-1.3 2.572-2.211 3.233s-1.998 0.989-3.259 0.989c-0.194 0-0.407-0.014-0.64-0.043-0.256-0.032-0.483-0.078-0.703-0.139l0.034 0.008-1.396-3.902c0.289 0.14 0.628 0.265 0.98 0.355l0.038 0.008c0.349 0.087 0.679 0.131 0.989 0.131 0.66 0 1.26-0.15 1.804-0.451s0.96-0.859 1.251-1.674l0.582-1.689-6.488-16.831h4.568l3.869 10.833 3.638-10.833h4.509zM62.392 4.795h-10.94v5.416h10.794v3.669h-10.795v10.308h-4.421v-23.266h15.363v3.873z"></path>
</symbol>
<symbol id="icon-logo-white" viewBox="0 0 108 32">
<title>logo</title>
<path fill="#fff" style="fill: var(--color4, #fff)" d="M0 9.228v0.080l18.253 8.575 18.318-8.603v-0.022l-18.318-8.605-18.253 8.575zM6.581 9.268l11.672-5.484 11.675 5.484-11.675 5.483-11.673-5.483zM18.253 21.213l-18.253-8.446v3.124l18.253 8.466 18.318-8.496v-3.124l-18.318 8.475zM18.253 27.55l-18.253-8.448v3.124l18.253 8.468 18.318-8.496v-3.124l-18.318 8.477z"></path>
<path fill="#fff" style="fill: var(--color1, #fff)" d="M104.202 15.773c0-0.013 0-0.027 0-0.042 0-1.391-0.537-2.656-1.414-3.601l0.003 0.003c-0.423-0.453-0.931-0.821-1.499-1.080l-0.030-0.012c-0.539-0.248-1.17-0.393-1.835-0.393-0.009 0-0.019 0-0.028 0h0.001c-0.66 0-1.281 0.131-1.863 0.393-0.597 0.271-1.105 0.64-1.526 1.090l-0.002 0.003c-0.874 0.941-1.411 2.206-1.411 3.597 0 0.015 0 0.030 0 0.045v-0.002c-0 0.013-0 0.028-0 0.042 0 1.391 0.537 2.656 1.414 3.6l-0.003-0.003c0.423 0.453 0.931 0.821 1.499 1.080l0.030 0.012c0.54 0.248 1.171 0.393 1.836 0.393 0.009 0 0.018-0 0.027-0h-0.001c0.66 0 1.28-0.131 1.863-0.393 0.597-0.271 1.104-0.639 1.525-1.089l0.002-0.003c0.874-0.941 1.411-2.206 1.411-3.597 0-0.015-0-0.031-0-0.046l0 0.002zM108.392 15.773c0 1.262-0.233 2.431-0.699 3.509-0.471 1.090-1.119 2.019-1.918 2.793l-0.002 0.002c-0.814 0.787-1.77 1.408-2.866 1.864s-2.265 0.684-3.506 0.684c-1.241 0-2.405-0.228-3.491-0.684-1.106-0.465-2.052-1.099-2.853-1.88l0.002 0.002c-0.799-0.782-1.446-1.715-1.898-2.753l-0.022-0.056c-0.466-1.078-0.699-2.237-0.699-3.48 0-1.223 0.238-2.373 0.713-3.451 0.485-1.097 1.137-2.034 1.934-2.824l0.001-0.001c0.798-0.787 1.744-1.426 2.793-1.871l0.059-0.022c1.008-0.433 2.181-0.685 3.413-0.685 0.017 0 0.034 0 0.052 0h-0.003c1.241 0 2.41 0.229 3.506 0.684s2.051 1.078 2.866 1.864 1.455 1.723 1.92 2.809c0.466 1.087 0.699 2.252 0.699 3.495zM88.985 24.101c-0.319 0.151-0.693 0.282-1.082 0.371l-0.038 0.007c-0.417 0.097-0.849 0.145-1.294 0.145-0.007 0-0.015 0-0.023 0-0.629 0-1.237-0.090-1.812-0.259l0.045 0.011c-0.579-0.165-1.081-0.44-1.504-0.805l0.005 0.004c-0.426-0.369-0.766-0.849-1.019-1.441-0.251-0.592-0.377-1.306-0.377-2.14v-19.977h4.277v19.248c0 0.699 0.14 1.179 0.422 1.441s0.616 0.393 1.004 0.393c0.485 0 0.95-0.146 1.396-0.437v3.436zM79.995 7.327l-7.565 20.006c-0.562 1.495-1.3 2.572-2.211 3.233s-1.998 0.989-3.259 0.989c-0.194 0-0.407-0.014-0.64-0.043-0.256-0.032-0.483-0.078-0.703-0.139l0.034 0.008-1.396-3.902c0.289 0.14 0.628 0.265 0.98 0.355l0.038 0.008c0.349 0.087 0.679 0.131 0.989 0.131 0.66 0 1.26-0.15 1.804-0.451s0.96-0.859 1.251-1.674l0.582-1.689-6.488-16.831h4.568l3.869 10.833 3.638-10.833h4.509zM62.392 4.795h-10.94v5.416h10.794v3.669h-10.795v10.308h-4.421v-23.266h15.363v3.873z"></path>
</symbol>
<symbol id="icon-twitter" viewBox="0 0 26 28">
<title>twitter</title>
<path d="M25.312 6.375c-0.688 1-1.547 1.891-2.531 2.609 0.016 0.219 0.016 0.438 0.016 0.656 0 6.672-5.078 14.359-14.359 14.359-2.859 0-5.516-0.828-7.75-2.266 0.406 0.047 0.797 0.063 1.219 0.063 2.359 0 4.531-0.797 6.266-2.156-2.219-0.047-4.078-1.5-4.719-3.5 0.313 0.047 0.625 0.078 0.953 0.078 0.453 0 0.906-0.063 1.328-0.172-2.312-0.469-4.047-2.5-4.047-4.953v-0.063c0.672 0.375 1.453 0.609 2.281 0.641-1.359-0.906-2.25-2.453-2.25-4.203 0-0.938 0.25-1.797 0.688-2.547 2.484 3.062 6.219 5.063 10.406 5.281-0.078-0.375-0.125-0.766-0.125-1.156 0-2.781 2.25-5.047 5.047-5.047 1.453 0 2.766 0.609 3.687 1.594 1.141-0.219 2.234-0.641 3.203-1.219-0.375 1.172-1.172 2.156-2.219 2.781 1.016-0.109 2-0.391 2.906-0.781z"></path>
</symbol>
<symbol id="icon-facebook" viewBox="0 0 16 28">
<title>facebook</title>
<path d="M14.984 0.187v4.125h-2.453c-1.922 0-2.281 0.922-2.281 2.25v2.953h4.578l-0.609 4.625h-3.969v11.859h-4.781v-11.859h-3.984v-4.625h3.984v-3.406c0-3.953 2.422-6.109 5.953-6.109 1.687 0 3.141 0.125 3.563 0.187z"></path>
</symbol>
<symbol id="icon-instagram" viewBox="0 0 24 28">
<title>instagram</title>
<path d="M16 14c0-2.203-1.797-4-4-4s-4 1.797-4 4 1.797 4 4 4 4-1.797 4-4zM18.156 14c0 3.406-2.75 6.156-6.156 6.156s-6.156-2.75-6.156-6.156 2.75-6.156 6.156-6.156 6.156 2.75 6.156 6.156zM19.844 7.594c0 0.797-0.641 1.437-1.437 1.437s-1.437-0.641-1.437-1.437 0.641-1.437 1.437-1.437 1.437 0.641 1.437 1.437zM12 4.156c-1.75 0-5.5-0.141-7.078 0.484-0.547 0.219-0.953 0.484-1.375 0.906s-0.688 0.828-0.906 1.375c-0.625 1.578-0.484 5.328-0.484 7.078s-0.141 5.5 0.484 7.078c0.219 0.547 0.484 0.953 0.906 1.375s0.828 0.688 1.375 0.906c1.578 0.625 5.328 0.484 7.078 0.484s5.5 0.141 7.078-0.484c0.547-0.219 0.953-0.484 1.375-0.906s0.688-0.828 0.906-1.375c0.625-1.578 0.484-5.328 0.484-7.078s0.141-5.5-0.484-7.078c-0.219-0.547-0.484-0.953-0.906-1.375s-0.828-0.688-1.375-0.906c-1.578-0.625-5.328-0.484-7.078-0.484zM24 14c0 1.656 0.016 3.297-0.078 4.953-0.094 1.922-0.531 3.625-1.937 5.031s-3.109 1.844-5.031 1.937c-1.656 0.094-3.297 0.078-4.953 0.078s-3.297 0.016-4.953-0.078c-1.922-0.094-3.625-0.531-5.031-1.937s-1.844-3.109-1.937-5.031c-0.094-1.656-0.078-3.297-0.078-4.953s-0.016-3.297 0.078-4.953c0.094-1.922 0.531-3.625 1.937-5.031s3.109-1.844 5.031-1.937c1.656-0.094 3.297-0.078 4.953-0.078s3.297-0.016 4.953 0.078c1.922 0.094 3.625 0.531 5.031 1.937s1.844 3.109 1.937 5.031c0.094 1.656 0.078 3.297 0.078 4.953z"></path>
</symbol>
</defs>
</svg>
